<svg width="278" height="82" viewBox="0 0 278 82" fill="none" xmlns="http://www.w3.org/2000/svg">
<path d="M271.269 1.13867H5.67348C3.16678 1.13867 1.1347 3.17826 1.1347 5.69423V76.3053C1.1347 78.8213 3.16678 80.8609 5.67348 80.8609H271.269C273.776 80.8609 275.808 78.8213 275.808 76.3053V5.69423C275.808 3.17826 273.776 1.13867 271.269 1.13867Z" stroke="#BBB597"/>
<path d="M65.591 39.0836C65.5385 32.7774 70.7374 29.7035 70.9794 29.5662C68.0326 25.2564 63.4651 24.6649 61.8549 24.6226C58.0136 24.2213 54.2985 26.9254 52.3411 26.9254C50.3519 26.9254 47.3419 24.6649 44.09 24.7283C39.9118 24.7916 36.0074 27.2212 33.871 30.9817C29.4508 38.6611 32.7449 49.9425 36.9862 56.1537C39.1014 59.1959 41.5747 62.5867 44.8162 62.4704C47.9839 62.3436 49.1732 60.4423 52.9935 60.4423C56.7822 60.4423 57.8978 62.4704 61.2024 62.3965C64.6018 62.3436 66.7487 59.3437 68.7904 56.2804C71.2426 52.7946 72.2213 49.3615 72.2634 49.1925C72.1792 49.1397 65.6542 46.6363 65.591 39.0836ZM59.3502 20.5347C61.0551 18.3904 62.2232 15.4855 61.897 12.5278C59.4344 12.6334 56.3402 14.239 54.5721 16.3306C53.0041 18.1791 51.5937 21.2001 51.9622 24.0417C54.7195 24.2423 57.5715 22.6367 59.3502 20.5347Z" fill="#0E0E0F"/>
<path d="M111.497 62.0163H107.067L104.636 54.3686H96.2057L93.8904 62.0163H89.5755L97.9317 35.9676H103.089L111.497 62.0163ZM103.909 51.1574L101.71 44.3548C101.478 43.6576 101.036 42.0203 100.405 39.4429H100.331C100.079 40.552 99.6577 42.1893 99.0999 44.3548L96.9425 51.1574H103.909ZM132.946 52.3933C132.946 55.5834 132.083 58.108 130.357 59.9671C128.809 61.615 126.884 62.4389 124.589 62.4389C122.106 62.4389 120.327 61.5516 119.244 59.7769V69.6324H115.086V49.4039C115.086 47.397 115.034 45.3371 114.929 43.235H118.59L118.823 46.2139H118.896C120.286 43.9745 122.39 42.8442 125.21 42.8442C127.42 42.8442 129.262 43.721 130.736 45.4744C132.209 47.228 132.946 49.5413 132.946 52.3933ZM128.715 52.5517C128.715 50.7244 128.304 49.2139 127.484 48.0308C126.589 46.7949 125.379 46.1821 123.863 46.1821C122.843 46.1821 121.906 46.5308 121.074 47.2068C120.244 47.8934 119.695 48.7913 119.444 49.8898C119.328 50.3018 119.264 50.7349 119.254 51.1574V54.2947C119.254 55.6574 119.675 56.8087 120.507 57.7594C121.337 58.6996 122.422 59.1748 123.758 59.1748C125.326 59.1748 126.547 58.5622 127.42 57.3581C128.273 56.1327 128.715 54.5376 128.715 52.5517ZM154.478 52.3933C154.478 55.5834 153.616 58.108 151.889 59.9671C150.342 61.615 148.417 62.4389 146.122 62.4389C143.639 62.4389 141.859 61.5516 140.776 59.7769V69.6324H136.618V49.4039C136.618 47.397 136.566 45.3371 136.461 43.235H140.123L140.355 46.2139H140.429C141.817 43.9745 143.922 42.8442 146.743 42.8442C148.954 42.8442 150.795 43.721 152.268 45.4744C153.732 47.228 154.478 49.5413 154.478 52.3933ZM150.237 52.5517C150.237 50.7244 149.827 49.2139 149.006 48.0308C148.112 46.7949 146.901 46.1821 145.386 46.1821C144.365 46.1821 143.428 46.5308 142.586 47.2068C141.755 47.8934 141.207 48.7913 140.955 49.8898C140.828 50.4074 140.755 50.8299 140.755 51.1574V54.2947C140.755 55.6574 141.176 56.8087 142.007 57.7594C142.839 58.6996 143.922 59.1748 145.27 59.1748C146.837 59.1748 148.058 58.5622 148.932 57.3581C149.806 56.1327 150.237 54.5376 150.237 52.5517ZM178.547 54.7172C178.547 56.9355 177.779 58.7418 176.243 60.1256C174.559 61.6467 172.191 62.4072 169.17 62.4072C166.381 62.4072 164.14 61.8685 162.445 60.7804L163.403 57.3052C165.224 58.3932 167.233 58.9319 169.412 58.9319C170.98 58.9319 172.201 58.5728 173.075 57.865C173.949 57.1573 174.39 56.2066 174.39 55.0236C174.39 53.9672 174.022 53.0799 173.306 52.351C172.59 51.6328 171.401 50.9567 169.729 50.3441C165.182 48.6434 162.908 46.1505 162.908 42.8865C162.908 40.7527 163.708 38.9993 165.318 37.6366C166.918 36.2739 169.044 35.5874 171.696 35.5874C174.054 35.5874 176.022 35.9993 177.59 36.8232L176.548 40.2246C175.074 39.4218 173.422 39.0309 171.559 39.0309C170.096 39.0309 168.939 39.39 168.117 40.1083C167.423 40.7527 167.076 41.5345 167.076 42.464C167.076 43.4886 167.476 44.3442 168.276 45.0097C168.971 45.6224 170.222 46.2984 172.043 47.0167C174.274 47.9251 175.916 48.9708 176.969 50.1857C178.021 51.4004 178.547 52.9109 178.547 54.7172ZM192.334 46.3723H187.745V55.4883C187.745 57.8122 188.556 58.9636 190.177 58.9636C190.924 58.9636 191.534 58.9002 192.029 58.7735L192.145 61.9424C191.324 62.2488 190.251 62.4072 188.914 62.4072C187.272 62.4072 185.988 61.9002 185.062 60.8967C184.136 59.8931 183.673 58.203 183.673 55.837V46.3723H180.947V43.2456H183.673V39.8021L187.757 38.5662V43.2456H192.344L192.334 46.3723ZM212.972 52.4778C212.972 55.3616 212.151 57.7383 210.51 59.5869C208.794 61.4987 206.511 62.4495 203.658 62.4495C200.911 62.4495 198.722 61.5305 197.091 59.7136C195.46 57.8862 194.65 55.5729 194.65 52.7948C194.65 49.8793 195.492 47.5026 197.176 45.6434C198.86 43.7843 201.122 42.8654 203.974 42.8654C206.721 42.8654 208.931 43.7843 210.594 45.6118C212.172 47.3758 212.972 49.6681 212.972 52.4778ZM208.658 52.5729C208.658 50.8511 208.289 49.3723 207.541 48.147C206.669 46.6575 205.426 45.9076 203.806 45.9076C202.142 45.9076 200.859 46.6575 199.995 48.147C199.249 49.3828 198.88 50.8828 198.88 52.6574C198.88 54.3792 199.249 55.858 199.995 57.094C200.891 58.5833 202.154 59.3333 203.774 59.3333C205.364 59.3333 206.605 58.5728 207.511 57.0623C208.279 55.7841 208.658 54.2947 208.658 52.5729ZM226.496 46.911C226.064 46.8371 225.623 46.7949 225.18 46.7949C223.717 46.7949 222.592 47.3442 221.792 48.4533C221.097 49.4356 220.75 50.6715 220.75 52.161V62.0163H216.593V49.1504C216.593 47.1751 216.561 45.2103 216.477 43.235H220.098L220.244 46.8265H220.36C220.802 45.5906 221.487 44.5977 222.444 43.8478C223.307 43.1928 224.37 42.8442 225.453 42.8442C225.844 42.8442 226.18 42.876 226.496 42.9182V46.911ZM245.093 51.7384C245.103 52.3722 245.05 53.006 244.945 53.6292H232.464C232.506 55.4883 233.116 56.9038 234.273 57.8862C235.325 58.7629 236.684 59.196 238.357 59.196C240.209 59.196 241.893 58.9002 243.409 58.3087L244.061 61.2029C242.292 61.9741 240.199 62.365 237.789 62.365C234.884 62.365 232.61 61.5093 230.948 59.7981C229.296 58.0868 228.464 55.7841 228.464 52.9003C228.464 50.0694 229.232 47.7138 230.78 45.8336C232.39 43.8266 234.579 42.8231 237.326 42.8231C240.02 42.8231 242.061 43.8266 243.451 45.8336C244.534 47.4287 245.093 49.3934 245.093 51.7384ZM241.125 50.6609C241.156 49.4251 240.883 48.3582 240.315 47.4497C239.599 46.2878 238.483 45.7069 236.999 45.7069C235.642 45.7069 234.537 46.2772 233.683 47.4075C232.989 48.3054 232.579 49.3934 232.452 50.6505L241.125 50.6609Z" fill="#0E0E0F"/>
<path d="M95.006 26.7669C93.8484 26.7669 92.8486 26.7141 92.0171 26.619V14.0172C93.1854 13.8376 94.3641 13.7425 95.5428 13.7531C100.31 13.7531 102.51 16.1087 102.51 19.9431C102.499 24.369 99.9104 26.7669 95.006 26.7669ZM95.7111 15.3693C95.0692 15.3693 94.5219 15.4115 94.0694 15.5065V25.0768C94.3114 25.1191 94.7851 25.1296 95.4481 25.1296C98.5737 25.1296 100.352 23.3445 100.352 20.0065C100.342 17.0171 98.7316 15.3693 95.7111 15.3693ZM109.351 26.8619C106.667 26.8619 104.92 24.8444 104.92 22.1085C104.92 19.2564 106.698 17.2284 109.498 17.2284C112.15 17.2284 113.929 19.1508 113.929 21.9606C113.929 24.8444 112.097 26.8619 109.351 26.8619ZM109.424 18.7283C107.951 18.7283 107.004 20.1121 107.004 22.0557C107.004 23.9571 107.972 25.3408 109.403 25.3408C110.845 25.3408 111.803 23.862 111.803 22.0134C111.813 20.1333 110.866 18.7283 109.424 18.7283ZM129.252 17.4185L126.379 26.6507H124.505L123.316 22.6472C123.021 21.6648 122.769 20.6719 122.58 19.6685H122.538C122.39 20.6719 122.106 21.686 121.8 22.6472L120.537 26.6507H118.644L115.938 17.4185H118.043L119.085 21.8022C119.328 22.8479 119.538 23.8303 119.707 24.7705H119.749C119.896 23.9887 120.148 23.0275 120.507 21.8234L121.812 17.4185H123.474L124.727 21.7283C125.032 22.774 125.274 23.7987 125.463 24.7705H125.515C125.653 23.8197 125.852 22.8163 126.137 21.7283L127.253 17.4185H129.252ZM139.85 26.6507H137.809V21.348C137.809 19.7107 137.187 18.8973 135.956 18.8973C134.746 18.8973 133.914 19.9431 133.914 21.1578V26.6507H131.873V20.0592C131.873 19.2459 131.851 18.3692 131.799 17.4185H133.599L133.693 18.8445H133.745C134.293 17.8622 135.409 17.2284 136.661 17.2284C138.587 17.2284 139.86 18.7073 139.86 21.1261L139.85 26.6507ZM145.48 26.6507H143.439V13.1826H145.48V26.6507ZM152.942 26.8619C150.258 26.8619 148.511 24.8444 148.511 22.1085C148.511 19.2564 150.29 17.2284 153.089 17.2284C155.741 17.2284 157.52 19.1508 157.52 21.9606C157.52 24.8444 155.679 26.8619 152.942 26.8619ZM153.016 18.7283C151.542 18.7283 150.595 20.1121 150.595 22.0557C150.595 23.9571 151.563 25.3408 152.994 25.3408C154.436 25.3408 155.394 23.862 155.394 22.0134C155.394 20.1333 154.458 18.7283 153.016 18.7283ZM165.581 26.6507L165.434 25.5838H165.382C164.761 26.4394 163.845 26.8513 162.688 26.8513C161.035 26.8513 159.867 25.6894 159.867 24.1367C159.867 21.855 161.835 20.6825 165.244 20.6825V20.5135C165.244 19.2987 164.603 18.6861 163.34 18.6861C162.435 18.6861 161.635 18.9185 160.94 19.3727L160.53 18.0206C161.383 17.4924 162.445 17.2178 163.688 17.2178C166.086 17.2178 167.307 18.4854 167.307 21.031V24.4324C167.307 25.362 167.349 26.0908 167.444 26.6401L165.581 26.6507ZM165.298 22.0557C163.024 22.0557 161.888 22.605 161.888 23.9148C161.888 24.8866 162.477 25.362 163.287 25.362C164.33 25.362 165.298 24.5697 165.298 23.4817V22.0557ZM177.211 26.6507L177.117 25.1718H177.063C176.474 26.2916 175.485 26.8619 174.106 26.8619C171.886 26.8619 170.244 24.9078 170.244 22.1508C170.244 19.267 171.949 17.2284 174.274 17.2284C175.507 17.2284 176.379 17.6403 176.864 18.4854H176.906V13.1826H178.947V24.1577C178.947 25.0451 178.968 25.8901 179.021 26.6401H177.211V26.6507ZM176.916 21.2212C176.916 19.9325 176.064 18.8234 174.759 18.8234C173.243 18.8234 172.317 20.1755 172.317 22.0663C172.317 23.9254 173.275 25.2036 174.717 25.2036C176 25.2036 176.916 24.0838 176.916 22.7529V21.2212ZM191.935 26.8619C189.251 26.8619 187.504 24.8444 187.504 22.1085C187.504 19.2564 189.282 17.2284 192.082 17.2284C194.734 17.2284 196.512 19.1508 196.512 21.9606C196.512 24.8444 194.682 26.8619 191.935 26.8619ZM192.008 18.7283C190.534 18.7283 189.587 20.1121 189.587 22.0557C189.587 23.9571 190.556 25.3408 191.987 25.3408C193.429 25.3408 194.387 23.862 194.387 22.0134C194.397 20.1333 193.449 18.7283 192.008 18.7283ZM207.511 26.6507H205.468V21.348C205.468 19.7107 204.847 18.8973 203.616 18.8973C202.406 18.8973 201.575 19.9431 201.575 21.1578V26.6507H199.533V20.0592C199.533 19.2459 199.512 18.3692 199.459 17.4185H201.258L201.354 18.8445H201.406C201.954 17.8622 203.069 17.2284 204.321 17.2284C206.248 17.2284 207.521 18.7073 207.521 21.1261V26.6507H207.511ZM221.255 18.9607H219.003V23.4394C219.003 24.5803 219.392 25.1507 220.192 25.1507C220.549 25.1507 220.855 25.1085 221.097 25.0556L221.15 26.6084C220.75 26.7564 220.224 26.8409 219.561 26.8409C217.95 26.8409 216.982 25.9535 216.982 23.6085V18.9502H215.635V17.4079H216.982V15.7178L218.992 15.1052V17.4079H221.245L221.255 18.9607ZM232.085 26.6507H230.042V21.3902C230.042 19.7424 229.421 18.9079 228.19 18.9079C227.127 18.9079 226.149 19.6262 226.149 21.0945V26.6613H224.107V13.1826H226.149V18.7283H226.191C226.833 17.7248 227.769 17.2284 228.959 17.2284C230.906 17.2284 232.095 18.7494 232.095 21.1578L232.085 26.6507ZM243.166 22.5311H237.031C237.073 24.274 238.22 25.2669 239.925 25.2669C240.83 25.2669 241.672 25.1191 242.408 24.8338L242.725 26.2598C241.851 26.6401 240.83 26.8303 239.641 26.8303C236.767 26.8303 235.063 25.0028 235.063 22.1825C235.063 19.3515 236.809 17.2284 239.409 17.2284C241.756 17.2284 243.23 18.9712 243.23 21.6121C243.25 21.9079 243.23 22.2247 243.166 22.5311ZM241.293 21.0628C241.293 19.6367 240.578 18.6332 239.273 18.6332C238.094 18.6332 237.168 19.6579 237.041 21.0628H241.293Z" fill="#0E0E0F"/>
</svg>
