<svg width="144" height="148" viewBox="0 0 144 148" fill="none" xmlns="http://www.w3.org/2000/svg">
<g clip-path="url(#clip0_0_14)">
<path fill-rule="evenodd" clip-rule="evenodd" d="M59.1429 91.1963L41.3223 81.5552C40.2584 80.9963 38.3702 80.337 36.7796 79.4162C36.1438 79.1684 35.5854 78.7151 35.1883 78.1243C34.5224 76.3192 34.4437 74.3758 34.965 72.6152C35.811 69.3819 36.8973 66.2418 38.2142 63.2228C40.2848 57.9486 42.399 52.7579 44.5785 47.6923C46.758 42.6267 49.2578 37.7123 51.8987 32.8835C57.2232 22.938 54.4783 24.796 57.7337 25.8558C59.7545 26.4592 61.7478 27.1907 63.7024 28.0462C65.6519 28.8982 67.5604 29.8688 69.4178 30.9527L79.8009 36.1452L83.1716 37.8878C83.5201 38.555 83.2079 39.6203 82.9933 40.6877C82.6535 42.1823 82.2257 43.6464 81.7123 45.0717L79.3408 51.6175L69.8411 73.9865C69.6737 74.3765 69.6655 74.8332 69.8184 75.256C69.9714 75.6787 70.2728 76.033 70.6565 76.2409C71.0401 76.4487 71.4746 76.4931 71.8642 76.3643C72.2539 76.2354 72.5669 75.9439 72.7343 75.5539L82.8744 53.4874L85.5823 47.0313C86.4968 44.819 87.1541 42.4808 87.5409 40.0643C87.7618 38.5311 87.4673 36.9228 86.707 35.5109C86.1904 34.8165 85.5549 34.228 84.8381 33.7801C83.7761 33.1056 82.6749 32.5099 81.5433 31.9978L71.5772 26.5876C69.5414 25.3686 67.5112 24.2527 65.427 23.2182C63.2992 22.2093 61.1288 21.3227 58.926 20.5628C57.5068 20.0233 56.0478 19.6461 54.5753 19.4381C54.1565 19.4522 53.7518 19.5579 53.3865 19.7487C53.0212 19.9395 52.7032 20.2111 52.4523 20.5467C51.695 21.4493 51.0306 22.4363 50.4688 23.4931C49.2968 25.5912 48.3587 28.0449 47.3326 29.9606C44.6159 34.829 42.0242 39.8445 39.7802 45.1561C37.5361 50.4677 35.6824 55.7877 33.7425 61.3121C32.179 65.2157 31.0952 69.3469 30.5158 73.6117C30.2884 75.7717 30.682 78.0049 31.6465 80.027C32.2911 81.1476 33.2238 82.065 34.3251 82.6617C36.1235 83.5844 37.9648 84.3952 39.8389 85.0897C43.4427 86.8167 47.1223 88.5042 50.6011 90.0842C52.9784 91.2488 55.3449 92.4543 57.7006 93.7009C58.0206 93.8278 58.3642 93.8329 58.6693 93.7153C58.9744 93.5976 59.221 93.3649 59.3643 93.0593C59.5077 92.7537 59.5385 92.3953 59.4512 92.0488C59.3638 91.7024 59.164 91.3907 58.888 91.1702L59.1429 91.1963Z" fill="#FFD700"/>
<path fill-rule="evenodd" clip-rule="evenodd" d="M68.1452 59.3746C68.7471 56.9787 68.5274 54.3712 67.5233 51.9938C66.5193 49.6165 64.7925 47.6154 62.6357 46.3297C61.2608 45.6688 59.7935 45.3041 58.3252 45.2582C56.857 45.2123 55.4191 45.4863 54.1012 46.063C52.755 46.6146 51.5773 47.5067 50.6646 48.666C49.752 49.8253 49.1304 51.2188 48.8509 52.7322C48.5465 54.9973 48.9995 57.3654 50.134 59.4393C51.1237 61.4087 52.6011 63.0845 54.3951 64.2729C54.7197 64.4897 55.1014 64.5722 55.4607 64.5031C55.8201 64.4341 56.1295 64.2189 56.3245 63.9022C56.4193 64.1155 56.5546 64.3086 56.7213 64.4686C56.8881 64.6285 57.0825 64.7518 57.2916 64.8302C58.3957 65.3868 59.5846 65.6855 60.7717 65.7043C61.9588 65.7232 63.1143 65.4618 64.1539 64.9392C65.1936 64.4166 66.0913 63.646 66.7817 62.6834C67.4722 61.7208 67.9379 60.5904 68.1452 59.3746ZM58.1249 61.529C57.7538 61.4133 57.3659 61.4444 57.0366 61.6164C56.7073 61.7883 56.4601 62.0889 56.3431 62.4595L56.0818 61.9591C54.8791 60.9178 53.9641 59.551 53.4492 58.0265C52.9451 56.7277 52.875 55.3185 53.2508 54.0435C53.5227 53.2974 53.962 52.6428 54.5334 52.1325C55.1048 51.6221 55.7924 51.27 56.541 51.1046C57.9185 50.5523 59.4886 50.6084 60.9167 51.2609C62.0435 51.8815 62.9657 52.8738 63.5311 54.0741C64.0965 55.2744 64.2714 56.611 64.0268 57.8632C64.003 58.5908 63.8147 59.2885 63.4774 59.8986C63.1401 60.5086 62.6635 61.0136 62.0869 61.3717C61.5103 61.7299 60.8503 61.9309 60.1614 61.9583C59.4724 61.9856 58.7744 61.8385 58.1249 61.529Z" fill="#FFD700"/>
<path fill-rule="evenodd" clip-rule="evenodd" d="M104.608 85.1271C106.384 83.6896 108.07 82.1358 109.657 80.4739C110.972 79.0496 112.14 77.4796 113.144 75.7869C113.996 74.37 114.374 72.6662 114.223 70.9244C114.03 69.7683 113.582 68.656 112.915 67.6801C111.678 66.0389 110.336 64.4871 108.898 63.0374C108.641 62.7284 108.285 62.5307 107.91 62.4878C107.535 62.4449 107.17 62.5603 106.897 62.8086C106.623 63.057 106.464 63.4179 106.452 63.812C106.441 64.2061 106.579 64.6011 106.836 64.9101C107.805 66.1559 108.697 67.4631 109.507 68.8229C109.888 69.4484 110.109 70.1586 110.146 70.8776C110.147 71.6198 109.595 72.2263 109.125 72.8965C108.132 74.1776 107.006 75.3348 105.766 76.3492C104.057 78.2502 102.179 79.9207 100.323 81.633C98.4667 83.3453 96.6059 85.3254 94.7555 87.1409C92.9052 88.9563 92.1913 89.8068 92.1534 89.8266C90.7354 90.9917 93.2003 92.5704 95.5999 91.5296C99.0691 88.6565 101.139 88.0002 104.608 85.1271Z" fill="#FFD700"/>
<path fill-rule="evenodd" clip-rule="evenodd" d="M80.6593 132.768C83.2656 131.04 85.5975 128.911 87.5857 126.444C89.6103 123.971 91.2071 121.129 92.3117 118.032C94.7837 110.673 94.9028 102.487 92.6518 94.6615C92.5123 92.8237 90.9387 92.2125 89.3303 93.1055C86.8714 93.5696 84.3298 93.626 81.7943 93.2726C79.7964 92.2857 78.048 90.7637 76.7358 88.8692C75.4235 86.9746 74.5966 84.7786 74.3433 82.5154C73.9568 81.2353 73.2046 80.086 72.1946 79.2324C71.1085 78.0845 69.7214 77.3179 68.2478 77.0514C66.7742 76.7848 65.2962 77.033 64.0425 77.7576C62.8556 78.3692 61.843 79.2777 61.0857 80.4104C60.3283 81.5432 59.8473 82.8688 59.6811 84.2811C59.6988 84.9618 59.794 86.3451 60.0036 88.0401C60.4673 91.8846 61.5537 97.8453 61.5915 100.32C60.6591 100.382 59.2814 102.641 58.8216 103.146C56.8063 105.45 55.2671 108.183 54.29 111.192C53.9021 112.34 53.7713 113.586 53.9072 114.838C54.0432 116.09 54.4424 117.316 55.0755 118.424C55.2834 118.822 55.6266 119.129 56.0295 119.277C56.4325 119.425 56.8622 119.402 57.2242 119.213C57.5862 119.024 57.8507 118.684 57.9596 118.269C58.0685 117.854 58.0129 117.397 57.805 116.999C57.4921 116.306 57.3227 115.56 57.3089 114.815C57.2951 114.07 57.4373 113.344 57.7252 112.688C58.7067 110.286 60.1554 108.158 61.9842 106.431C62.5577 105.866 64.675 104.654 65.4485 103.825C65.8959 103.4 66.1683 102.805 66.2148 102.151C66.275 100.866 66.2433 99.5696 66.1198 98.2737C65.7416 93.8538 64.9239 86.7444 64.9634 84.9723C65.0944 84.5227 65.313 84.1132 65.6058 83.7687C65.8987 83.4241 66.2597 83.1518 66.667 82.9682C66.9795 82.7575 67.356 82.6644 67.7408 82.7024C68.1256 82.7404 68.4982 82.9076 68.8036 83.1792C69.1337 83.6212 69.3918 84.1153 69.5658 84.6388C70.4477 86.7707 71.4406 88.857 72.5396 90.8876C73.6463 92.6486 75.0901 94.1591 76.7676 95.3109C78.4451 96.4627 80.3148 97.2272 82.2427 97.5497C84.8799 97.8453 87.4859 97.3663 89.7706 96.1661C90.8517 102.886 90.0905 109.642 87.5787 115.621C86.4927 118.148 85.0869 120.487 83.3971 122.581C81.6984 124.711 79.7619 126.613 77.6242 128.25C72.4178 132.187 66.4481 134.944 60.0533 136.364C59.6473 136.444 59.2991 136.69 59.0823 137.051C58.8656 137.412 58.7972 137.859 58.8918 138.297C58.9977 138.728 59.2572 139.109 59.614 139.36C59.9708 139.611 60.3961 139.711 60.7977 139.637C67.9094 138.877 74.6748 136.537 80.6593 132.768Z" fill="#FFD700"/>
<path fill-rule="evenodd" clip-rule="evenodd" d="M85.2888 81.9477C88.4482 78.7587 91.6731 75.6947 94.8543 72.5474C97.0023 70.4703 99.0471 68.288 101.173 66.1692C103.479 64.1351 105.481 61.75 107.122 59.0822C107.611 58.2279 107.896 57.2497 107.955 56.2243C108.014 55.1989 107.845 54.1544 107.462 53.1729C107.15 52.4884 106.673 51.8931 106.081 51.4526C104.943 50.6913 103.773 49.9917 102.574 49.3566L91.3843 42.2501C91.239 42.0876 91.0643 41.9579 90.8723 41.87C90.6803 41.7822 90.4757 41.7383 90.2727 41.7416C90.0698 41.7448 89.8734 41.795 89.6974 41.8886C89.5214 41.9823 89.37 42.1172 89.2537 42.2838C89.1374 42.4504 89.0592 42.6448 89.0243 42.8533C88.9895 43.0619 88.999 43.2795 89.0521 43.491C89.1052 43.7025 89.2007 43.9028 89.3319 44.0779C89.463 44.2529 89.6267 44.3985 89.8114 44.5044L100.337 53.0191C102.189 54.4403 104.974 53.6758 101.378 57.7831C99.9499 59.484 98.2181 60.9722 97.2929 61.8799C93.6309 65.8621 89.985 69.7828 86.4262 73.8704C82.8675 77.9579 81.8253 79.9351 78.7868 83.9101C77.0235 85.8924 77.6252 88.338 79.2553 87.4867C81.4517 85.2252 83.0924 84.2092 85.2888 81.9477Z" fill="#FFD700"/>
</g>
<defs>
<clipPath id="clip0_0_14">
<rect width="112.908" height="102.643" fill="white" transform="translate(90.9844) rotate(62.4258)"/>
</clipPath>
</defs>
</svg>
