<svg width="105" height="105" viewBox="0 0 105 105" fill="none" xmlns="http://www.w3.org/2000/svg">
<g clip-path="url(#clip0_0_9)">
<path fill-rule="evenodd" clip-rule="evenodd" d="M95.8312 18.8986C95.3234 17.7314 94.4595 16.7546 93.3631 16.1078C94.093 14.1518 94.0474 11.9909 93.2358 10.0674C92.4242 8.14392 90.908 6.6035 88.9976 5.76158C85.1246 3.68039 80.7456 2.72696 76.358 3.00957C70.8044 3.75318 67.1243 12.2141 64.5007 15.9826C59.0002 23.7839 31.2834 67.121 28.8279 73.8259C28.7764 74.3649 28.8709 74.9079 29.1014 75.3978C29.332 75.8877 29.6901 76.3066 30.1382 76.6105C24.9849 82.662 19.6559 87.733 25.6794 93.0087C24.3285 94.6973 21.0228 101.685 22.4247 102.146C23.1972 103.108 23.6336 102.267 27.0941 98.8955C27.9886 97.8303 28.7062 96.6283 29.2193 95.3354C36.3256 98.6295 38.4022 91.7223 41.1438 84.2711L41.87 84.7586C41.9995 84.8507 42.1459 84.9164 42.3009 84.952C42.4558 84.9875 42.6162 84.9921 42.773 84.9657C42.9297 84.9392 43.0797 84.8821 43.2144 84.7977C43.349 84.7132 43.4658 84.6031 43.5579 84.4735C43.65 84.344 43.7157 84.1976 43.7512 84.0426C43.7867 83.8877 43.7914 83.7273 43.7649 83.5706C43.7384 83.4138 43.6814 83.2638 43.5969 83.1292C43.5125 82.9945 43.4023 82.8777 43.2728 82.7856C39.2515 80.1427 35.3751 77.2856 31.6604 74.2268C35.0087 67.6738 56.356 35.8943 60.5296 29.6196C61.6223 30.59 62.8133 31.7502 63.2039 32.071C66.571 34.7308 70.3038 36.8917 74.2872 38.487C60.8107 56.9259 59.8773 61.2471 45.5622 80.0873C45.4007 80.3841 45.3528 80.7295 45.4275 81.0591C45.5022 81.3886 45.6943 81.6796 45.968 81.8778C46.2417 82.0759 46.5782 82.1675 46.9146 82.1356C47.2509 82.1036 47.5641 81.9502 47.7956 81.7041C60.7225 65.394 65.3388 57.1207 72.6018 47.3511C78.3472 39.6056 88.48 27.3601 92.4252 18.7535C92.8941 19.3698 93.1986 20.0952 93.3101 20.8615C93.5338 21.8581 93.555 22.8895 93.3724 23.8945C93.1898 24.8994 92.8072 25.8575 92.2472 26.7117C90.9466 29.0926 89.5213 31.4034 87.9774 33.6343C81.3701 43.5791 80.4238 44.5098 81.9194 45.5204C82.2028 45.7486 82.5644 45.8565 82.9265 45.821C83.2886 45.7855 83.6223 45.6095 83.8561 45.3307C88.1716 39.2815 101.19 28.7885 95.8312 18.8986ZM38.7562 82.7094C38.4796 82.7365 38.1253 84.0082 38.1253 84.0082C34.3577 90.7619 33.7617 92.4164 31.2431 91.1468C24.5126 87.6164 27.4677 86.01 31.9492 77.9893C33.9811 79.5859 36.6445 81.5197 38.7562 82.7094ZM89.3567 13.9066C88.758 18.7935 78.9072 32.2883 75.9868 36.2854C72.0048 32.4542 67.3787 29.3549 62.3208 27.1297C64.8575 23.2899 66.9222 20.3343 68.1468 18.5783C70.1519 15.828 74.1272 7.93672 76.9257 7.58274C80.6766 7.17535 89.9227 9.50167 89.3412 13.7485L89.3567 13.9066Z" fill="#FFD700"/>
<path fill-rule="evenodd" clip-rule="evenodd" d="M72.7629 59.5857C72.4795 59.3575 72.1179 59.2496 71.7558 59.2851C71.3938 59.3206 71.06 59.4966 70.8263 59.7754C69.5901 61.4129 70.9657 61.1983 83.2421 71.6473C87.2462 75.0458 91.0999 78.5389 94.811 82.2056C98.5221 85.8722 97.8606 92.561 91.5788 89.9443C87.4369 88.164 83.4416 86.0604 79.6299 83.653C61.893 72.861 61.9645 70.7392 60.6531 72.4239C60.4557 72.6737 60.3627 72.9903 60.3938 73.3072C60.4248 73.6241 60.5774 73.9166 60.8196 74.1234C69.7094 81.7963 79.382 88.5124 89.6775 94.1608C101.139 99.1431 104.79 85.4976 97.6073 78.9788C89.6802 72.0729 81.3867 65.5991 72.7629 59.5857Z" fill="#FFD700"/>
<path fill-rule="evenodd" clip-rule="evenodd" d="M39.227 43.1191C39.3677 42.8711 39.418 42.5819 39.3693 42.3009C39.3205 42.02 39.1758 41.7647 38.9597 41.5786C38.7436 41.3925 38.4697 41.2872 38.1846 41.2806C37.8995 41.2741 37.621 41.3667 37.3966 41.5426C36.1053 40.2731 34.9857 38.84 34.066 37.2801C33.085 35.8199 28.7393 31.3775 27.6326 31.4859C27.4411 31.482 27.251 31.5189 27.0749 31.5941C26.8987 31.6694 26.7406 31.7812 26.611 31.9222C26.4814 32.0632 26.3833 32.2302 26.3232 32.412C26.2631 32.5939 26.2423 32.7864 26.2623 32.9769C27.5448 37.2172 30.3088 40.8552 34.0501 43.2272C30.7631 42.5846 27.6024 41.4118 24.6918 39.7547C22.797 38.819 21.1749 37.4113 19.9817 35.6672C19.9224 35.4809 19.8244 35.3092 19.6942 35.1634C19.5639 35.0176 19.4044 34.9009 19.226 34.8209C19.0476 34.7409 18.8543 34.6995 18.6588 34.6993C18.4633 34.6991 18.27 34.7401 18.0914 34.8197C17.9128 34.8994 17.7531 35.0158 17.6225 35.1613C17.492 35.3069 17.3937 35.4783 17.3339 35.6645C17.2742 35.8507 17.2544 36.0473 17.2758 36.2417C17.2973 36.436 17.3595 36.6236 17.4584 36.7923C18.5114 39.8621 20.6084 42.4651 23.3838 44.1475C26.1591 45.8298 29.4369 46.4849 32.6457 45.9984C30.6176 47.6162 28.1168 48.5277 25.5234 48.5945C22.93 48.6613 20.3856 47.8798 18.2769 46.3687C12.8983 43.2524 8.9505 38.1578 7.27562 32.1716C5.60073 26.1854 6.33141 19.7817 9.31177 14.3267C10.2187 16.7819 11.8464 18.9058 13.9814 20.4198C16.1164 21.9338 18.6591 22.7674 21.276 22.8112C26.1832 23.2083 32.0832 21.1139 37.3022 27.5458C38.3644 28.7169 39.0906 30.1531 39.4039 31.7027C39.7173 33.2524 39.6062 34.8579 39.0825 36.3497C39.0073 36.6762 39.0527 37.019 39.2102 37.3148C39.3676 37.6106 39.6267 37.8395 39.9396 37.9594C40.2525 38.0793 40.5982 38.0822 40.9131 37.9674C41.2279 37.8526 41.4907 37.628 41.653 37.3348C42.4361 35.3862 42.6791 33.2624 42.3564 31.1872C42.0337 29.112 41.1573 27.1623 39.8195 25.5434C31.4598 14.7506 22.5656 22.1262 16.1787 16.8063C14.5921 15.3845 13.465 13.5223 12.9412 11.4572C6.26257 -2.13394 -10.2277 37.2701 16.6972 49.7955C24.9288 53.578 31.885 52.8964 39.227 43.1191Z" fill="#FFD700"/>
</g>
<defs>
<clipPath id="clip0_0_9">
<rect width="95.3117" height="95.3117" fill="white" transform="translate(0 9.29346) rotate(-5.5955)"/>
</clipPath>
</defs>
</svg>
