<svg width="137" height="137" viewBox="0 0 137 137" fill="none" xmlns="http://www.w3.org/2000/svg">
<g clip-path="url(#clip0_0_73)">
<path fill-rule="evenodd" clip-rule="evenodd" d="M48.8919 40.6247C47.0042 29.6394 45.8533 18.5403 45.447 7.40146C45.4425 6.8989 45.6245 6.41251 45.9578 6.03641C46.2912 5.66032 46.7523 5.42126 47.2517 5.3655C47.7512 5.30975 48.2536 5.44126 48.6617 5.73458C49.0698 6.02791 49.3546 6.46219 49.461 6.95339C53.3763 23.461 55.7891 40.2893 56.6696 57.232C56.6682 57.7538 56.4762 58.2571 56.1298 58.6473C55.7833 59.0375 55.3062 59.2876 54.7882 59.3507C54.2702 59.4137 53.7471 59.2854 53.3171 58.9897C52.8871 58.6941 52.58 58.2515 52.4535 57.7453C51.4953 53.8326 50.6318 49.8972 49.8637 45.9428C45.3367 50.5754 41.8021 56.0827 39.4763 62.128C53.1431 64.214 66.6774 67.0991 80.0166 70.7638C80.5833 70.8169 81.1057 71.093 81.4688 71.5314C81.8319 71.9697 82.006 72.5343 81.9529 73.101C81.8997 73.6677 81.6236 74.1901 81.1853 74.5532C80.747 74.9163 80.1823 75.0904 79.6156 75.0373C72.1813 73.4661 64.7111 72.0702 57.2111 70.8506C60.3322 88.1796 60.8095 105.882 58.6267 123.354C58.5732 123.704 58.4333 124.036 58.2196 124.32C58.0059 124.603 57.7251 124.829 57.4024 124.977C57.0798 125.124 56.7255 125.19 56.3714 125.166C56.0173 125.143 55.6745 125.032 55.3739 124.844C54.6517 125.927 51.6148 125.478 33.5816 122.804C27.0135 121.83 18.4569 120.561 7.29993 118.965C6.47359 118.824 5.73639 118.363 5.24867 117.681C4.76096 116.999 4.56219 116.152 4.69561 115.325C5.99123 107.121 7.57753 97.8444 9.37979 88.6107L9.78444 86.528C14.5806 61.9253 15.0909 59.3175 18.6473 59.5784C23.8711 60.0609 29.0835 60.6595 34.2807 61.3735C34.5772 56.9071 36.0973 52.6085 38.6745 48.9486C41.2518 45.2888 44.7867 42.409 48.8919 40.6247ZM20.9406 66.3431C17.7368 79.7781 13.793 99.8677 11.4632 113.31C18.0627 114.542 23.6847 115.585 28.481 116.47C45.4262 119.609 51.9687 120.817 54.3868 121.84C54.2742 115.733 53.0019 80.2117 52.5731 70.1207C42.0753 68.5145 31.5245 67.2543 20.9406 66.3431Z" fill="#0E0E0F"/>
<path fill-rule="evenodd" clip-rule="evenodd" d="M120.147 16.059C94.2823 8.89973 85.8145 38.2921 105.455 47.7818C109.169 49.464 113.351 49.8072 117.29 48.7531C121.229 47.6991 124.68 45.3128 127.058 42.0004C129.435 38.688 130.591 34.6541 130.33 30.5853C130.068 26.5165 128.404 22.6641 125.622 19.6837C125.233 19.2674 124.696 19.0225 124.127 19.0028C123.558 18.9831 123.004 19.1902 122.588 19.5786C122.172 19.967 121.927 20.5048 121.907 21.0738C121.887 21.6428 122.094 22.1963 122.483 22.6126C124.178 24.7402 125.124 27.3681 125.173 30.0884C125.222 32.8086 124.371 35.4688 122.753 37.6558C121.134 39.8429 118.839 41.4343 116.224 42.1831C113.608 42.9318 110.818 42.7959 108.288 41.7964C95.9384 35.9615 99.3892 16.8131 119.278 20.023C119.797 20.1214 120.334 20.0136 120.774 19.7224C121.215 19.4312 121.525 18.9796 121.638 18.4635C121.752 17.9474 121.659 17.4076 121.381 16.9586C121.102 16.5096 120.66 16.1869 120.147 16.059Z" fill="#0E0E0F"/>
<path fill-rule="evenodd" clip-rule="evenodd" d="M120.05 61.5881C114.608 50.2445 103.172 55.8595 97.7662 55.9176C92.0265 54.8672 86.398 53.2812 80.9543 51.1804C63.9647 48.1662 59.9798 70.0452 80.5927 75.6269C102.821 81.5925 96.8356 61.9007 91.6837 115.21C90.7758 124.317 90.28 133.442 100.973 134.234C111.321 135.033 114.58 125.572 116.933 115.482C118.646 108.187 124.812 71.5884 120.05 61.5881ZM116.016 63.5909C111.993 55.899 104.416 60.9513 97.9386 61.2702C91.8393 60.4382 85.8307 59.013 80.0053 57.019C69.9493 55.5664 70.3185 66.2451 82.256 69.3513C108.796 76.2598 104.712 51.4467 98.2345 115.868C97.5454 122.455 96.181 127.405 101.529 127.89C110.951 128.724 113.64 102.853 115.059 93.5812C117.906 83.8259 118.236 73.508 116.016 63.5909Z" fill="#0E0E0F"/>
</g>
<defs>
<clipPath id="clip0_0_73">
<rect width="120" height="120" fill="white" transform="translate(18.1492 0.220215) rotate(8.69898)"/>
</clipPath>
</defs>
</svg>
