<svg width="143" height="143" viewBox="0 0 143 143" fill="none" xmlns="http://www.w3.org/2000/svg">
<g clip-path="url(#clip0_0_94)">
<path fill-rule="evenodd" clip-rule="evenodd" d="M53.0797 122.665C52.3356 121.728 51.4852 120.88 50.5455 120.139C48.7272 118.951 46.7094 118.101 44.589 117.629C45.682 116.975 46.6208 116.093 47.3415 115.042C48.0621 113.992 48.5475 112.799 48.7646 111.544C48.9816 110.288 48.9252 109.001 48.5991 107.77C48.273 106.539 47.685 105.392 46.8752 104.409C45.2946 102.171 43.0451 100.493 40.4501 99.6143C37.8552 98.736 35.0486 98.7031 32.4338 99.5206C30.7047 100.27 29.1657 101.398 27.9304 102.822C26.695 104.245 25.7947 105.928 25.2957 107.745C24.7425 109.653 24.7701 111.683 25.3751 113.575C25.98 115.467 27.1349 117.136 28.6924 118.37C29.9353 119.236 31.3691 119.789 32.8718 119.981C30.9299 121.361 29.2885 123.121 28.0469 125.155C27.4923 126.215 27.0629 127.336 26.7672 128.496C26.4863 129.696 26.3544 130.927 26.3745 132.159C26.3591 134.797 26.664 137.428 27.2825 139.992C27.3703 140.495 27.638 140.948 28.0357 141.268C28.4333 141.587 28.9337 141.751 29.4434 141.729C29.7078 141.708 29.9655 141.635 30.2014 141.514C30.4373 141.392 30.6467 141.225 30.8174 141.022C30.9881 140.819 31.1167 140.584 31.1958 140.331C31.2748 140.078 31.3027 139.811 31.2777 139.547C31.7017 136.529 32.4009 133.555 33.3665 130.664L34.1045 127.899C34.3564 126.924 34.4616 125.982 34.7728 125.046C35.1775 123.86 35.7047 122.719 36.3458 121.642C36.5442 121.429 36.683 121.168 36.7481 120.885C36.8133 120.602 36.8024 120.306 36.7166 120.028C37.8939 120.033 39.0686 119.919 40.2229 119.688C40.2229 119.688 40.4674 119.635 40.5618 119.36C40.7584 119.79 41.1045 120.134 41.5357 120.327C42.5612 121.048 43.5088 121.874 44.3632 122.791C45.0299 123.517 45.5115 124.335 46.1397 125.121L47.9442 127.342C50.027 129.61 51.8887 132.071 53.5039 134.692C53.5888 134.947 53.7254 135.182 53.9051 135.381C54.0848 135.581 54.3038 135.741 54.5483 135.852C54.7929 135.963 55.0577 136.022 55.3261 136.026C55.5946 136.029 55.861 135.978 56.1085 135.874C56.6174 135.689 57.0324 135.31 57.263 134.82C57.4935 134.33 57.5208 133.769 57.3389 133.259C56.8395 130.666 56.0256 128.145 54.9152 125.75C54.429 124.652 53.8128 123.616 53.0797 122.665ZM35.1434 116.019C33.987 115.811 32.9221 115.253 32.092 114.421C31.5538 113.765 31.2193 112.966 31.1297 112.122C31.0401 111.278 31.1993 110.426 31.5877 109.672C31.8671 108.832 32.3232 108.061 32.9252 107.412C33.5273 106.763 34.2613 106.251 35.0781 105.909C36.3734 105.394 37.7985 105.303 39.149 105.648C40.4995 105.993 41.7061 106.756 42.5958 107.829C45.5836 111.281 43.1259 117.482 35.1434 116.019Z" fill="#0E0E0F"/>
<path fill-rule="evenodd" clip-rule="evenodd" d="M93.3689 114.05C92.6249 113.113 91.7745 112.266 90.8347 111.525C89.0164 110.336 86.9986 109.486 84.8782 109.015C85.9983 108.382 86.967 107.514 87.7171 106.469C88.4672 105.424 88.9805 104.228 89.2214 102.965C89.4623 101.702 89.4249 100.401 89.1119 99.1536C88.7989 97.9062 88.2177 96.742 87.4089 95.742C85.8283 93.5044 83.5788 91.8257 80.9839 90.9473C78.3889 90.069 75.5823 90.0361 72.9675 90.8536C71.1871 91.5786 69.5962 92.7014 68.3166 94.136C67.037 95.5705 66.1026 97.2789 65.585 99.1302C65.0622 101.051 65.1248 103.085 65.7647 104.97C66.4047 106.856 67.5929 108.507 69.1772 109.713C70.4201 110.579 71.854 111.132 73.3566 111.325C71.4148 112.705 69.7733 114.465 68.5317 116.498C67.9772 117.559 67.5478 118.68 67.2521 119.839C66.9726 120.974 66.8268 122.138 66.8175 123.307C66.8021 125.945 67.107 128.576 67.7255 131.14C67.7685 131.686 68.0228 132.193 68.4342 132.554C68.8456 132.915 69.3817 133.101 69.9282 133.072C70.1927 133.052 70.4503 132.978 70.6862 132.857C70.9221 132.736 71.1315 132.569 71.3022 132.366C71.473 132.163 71.6016 131.928 71.6806 131.674C71.7596 131.421 71.7875 131.155 71.7626 130.891C72.1253 127.892 72.7589 124.933 73.6557 122.049L74.3938 119.284C74.6456 118.31 74.7508 117.367 75.062 116.431C75.4667 115.245 75.9939 114.104 76.635 113.027C76.8334 112.814 76.9722 112.553 77.0374 112.27C77.1025 111.987 77.0916 111.691 77.0059 111.414C78.1831 111.418 79.3578 111.304 80.5121 111.073C80.5121 111.073 80.7566 111.021 80.851 110.745C81.0476 111.175 81.3937 111.519 81.8249 111.713C82.8504 112.433 83.798 113.259 84.6525 114.176C85.3192 114.903 85.8007 115.72 86.429 116.506L88.2334 118.728C90.3162 120.995 92.1779 123.456 93.7932 126.078C93.8781 126.332 94.0146 126.567 94.1944 126.766C94.3741 126.966 94.5931 127.126 94.8376 127.237C95.0821 127.348 95.3469 127.407 95.6154 127.411C95.8838 127.415 96.1502 127.363 96.3978 127.259C96.9067 127.074 97.3217 126.695 97.5522 126.205C97.7827 125.715 97.81 125.154 97.6282 124.644C97.1287 122.052 96.3148 119.53 95.2044 117.135C94.7183 116.037 94.102 115.001 93.3689 114.05ZM75.4327 107.404C74.2762 107.196 73.2113 106.638 72.3812 105.807C71.8431 105.151 71.5086 104.351 71.419 103.507C71.3294 102.663 71.4886 101.812 71.877 101.057C72.1564 100.217 72.6124 99.4466 73.2145 98.7976C73.8165 98.1485 74.5506 97.6359 75.3673 97.2942C76.6626 96.7794 78.0877 96.688 79.4382 97.033C80.7887 97.378 81.9953 98.1417 82.8851 99.2147C85.8833 102.715 83.4046 108.818 75.4327 107.404Z" fill="#0E0E0F"/>
<path fill-rule="evenodd" clip-rule="evenodd" d="M133.658 105.436C132.914 104.498 132.064 103.651 131.124 102.91C129.402 101.726 127.485 100.855 125.461 100.337C126.554 99.6827 127.493 98.8003 128.213 97.75C128.934 96.6997 129.419 95.5062 129.636 94.2511C129.854 92.996 129.797 91.7088 129.471 90.4775C129.145 89.2462 128.557 88.0998 127.747 87.1166C126.166 84.879 123.917 83.2003 121.322 82.3219C118.727 81.4435 115.92 81.4107 113.306 82.2282C111.536 82.9582 109.955 84.0821 108.684 85.5144C107.414 86.9467 106.486 88.6498 105.972 90.4944C105.419 92.4024 105.446 94.432 106.051 96.3242C106.656 98.2165 107.811 99.8857 109.369 101.119C110.622 101.965 112.051 102.516 113.548 102.731C111.591 104.113 109.933 105.876 108.674 107.914C108.12 108.975 107.69 110.096 107.395 111.256C107.115 112.391 106.969 113.555 106.96 114.723C106.894 117.366 107.15 120.007 107.721 122.588C107.764 123.134 108.019 123.641 108.43 124.002C108.842 124.363 109.378 124.549 109.924 124.52C110.189 124.499 110.446 124.426 110.682 124.305C110.918 124.183 111.127 124.016 111.298 123.813C111.469 123.61 111.597 123.375 111.677 123.122C111.756 122.869 111.783 122.602 111.758 122.338C112.213 119.31 112.945 116.329 113.945 113.434L114.683 110.669C114.935 109.695 115.04 108.752 115.351 107.816C115.756 106.63 116.283 105.489 116.924 104.412C117.123 104.2 117.262 103.938 117.327 103.655C117.392 103.372 117.381 103.076 117.295 102.799C118.489 102.803 119.68 102.685 120.85 102.448C120.85 102.448 120.85 102.448 121.14 102.13C121.324 102.568 121.674 102.916 122.114 103.098C123.14 103.818 124.087 104.644 124.942 105.561C125.608 106.288 126.09 107.105 126.718 107.891L128.523 110.113C130.606 112.38 132.467 114.841 134.082 117.463C134.167 117.717 134.304 117.952 134.484 118.151C134.663 118.351 134.882 118.511 135.127 118.622C135.371 118.733 135.636 118.792 135.905 118.796C136.173 118.8 136.439 118.748 136.687 118.644C137.196 118.459 137.611 118.08 137.841 117.59C138.072 117.1 138.099 116.539 137.917 116.029C137.386 113.405 136.532 110.857 135.375 108.443C134.921 107.378 134.345 106.368 133.658 105.436ZM115.771 98.7786C114.614 98.5704 113.549 98.013 112.719 97.1813C112.181 96.5251 111.847 95.7259 111.757 94.8819C111.668 94.038 111.827 93.1863 112.215 92.4318C112.495 91.5917 112.951 90.8212 113.553 90.1721C114.155 89.5231 114.889 89.0104 115.705 88.6688C117.001 88.154 118.426 88.0626 119.776 88.4076C121.127 88.7526 122.333 89.5163 123.223 90.5893C123.705 91.0777 124.068 91.671 124.282 92.3227C124.497 92.9745 124.558 93.667 124.461 94.3463C124.364 95.0256 124.11 95.6731 123.721 96.2384C123.332 96.8036 122.818 97.2712 122.218 97.6046C120.964 98.4351 122.375 98.338 120.077 98.8294C118.648 99.0378 117.195 99.0207 115.771 98.7786Z" fill="#0E0E0F"/>
<path fill-rule="evenodd" clip-rule="evenodd" d="M86.4901 41.2289C85.6453 40.0681 84.6486 39.0259 83.5266 38.1301C80.9923 36.2817 78.1189 34.9502 75.0703 34.2117C76.2861 32.5899 77.0656 30.6835 77.3342 28.6746C77.6029 26.6656 77.3518 24.6213 76.605 22.7371C75.721 19.6874 73.8921 16.9968 71.3815 15.0528C68.8708 13.1088 65.8081 12.0116 62.6341 11.9193C59.5933 12.3723 56.7288 13.6297 54.3371 15.5615C51.9454 17.4933 50.1135 20.0291 49.0309 22.9066C48.3744 24.3579 48.0279 25.9302 48.0136 27.5231C47.9994 29.1159 48.3176 30.6942 48.948 32.157C49.5784 33.6199 50.5071 34.9351 51.6747 36.0186C52.8423 37.1021 54.2231 37.9301 55.7289 38.4496L56.2179 38.3451C54.0933 40.5776 52.2369 43.0509 50.6866 45.7145C49.5822 47.5991 48.7601 49.6354 48.2464 51.7584C47.6581 53.7101 47.4737 55.7612 47.7046 57.7865C47.9354 59.8118 48.5767 61.7688 49.5892 63.538C49.833 64.0072 50.2527 64.3608 50.7566 64.5214C51.2604 64.6819 51.8074 64.6364 52.2777 64.3948C52.7596 64.1478 53.1242 63.7202 53.2919 63.2054C53.4597 62.6905 53.4169 62.1303 53.1729 61.6468C52.8617 60.398 52.8815 59.0897 53.2305 57.8509C53.5921 56.4364 54.0657 55.0528 54.6466 53.7133C55.1676 52.3237 55.7863 50.9131 56.2863 49.4257C57.5659 46.0843 58.4439 42.7776 59.4298 40.2148C59.4298 40.2148 59.3462 39.8236 59.5873 39.5164C61.2904 39.7131 63.0089 39.7396 64.7172 39.5955C65.1855 39.57 65.6254 39.3628 65.9431 39.0179C66.2609 38.673 66.4316 38.2177 66.4187 37.7489C66.4123 37.5118 66.3591 37.2784 66.2622 37.062C66.1653 36.8455 66.0266 36.6504 65.854 36.4877C65.6814 36.3251 65.4784 36.1981 65.2567 36.1142C65.0349 36.0302 64.7987 35.9909 64.5617 35.9985C63.315 35.9897 62.072 35.8617 60.8497 35.6162C59.719 35.3868 58.6315 34.9809 57.627 34.4135C56.353 33.79 55.32 32.7639 54.688 31.4941C54.056 30.2243 53.8602 28.7816 54.1309 27.3892C54.5339 25.6543 55.393 24.0585 56.6194 22.7667C58.1757 20.656 60.499 19.2411 63.0886 18.827C64.9303 18.7751 66.7396 19.3195 68.2469 20.3793C69.7541 21.439 70.8787 22.9573 71.4532 24.7079C72.9707 28.2182 72.7803 32.3493 68.5508 33.6116C68.255 33.6277 67.9662 33.7077 67.7043 33.8461C67.4424 33.9845 67.2137 34.178 67.0337 34.4132C66.8538 34.6485 66.7269 34.92 66.662 35.209C66.597 35.498 66.5954 35.7976 66.6574 36.0873C66.7193 36.3769 66.8433 36.6497 67.0208 36.8869C67.1982 37.124 67.425 37.3199 67.6854 37.461C67.9458 37.6021 68.2337 37.6851 68.5293 37.7043C68.8249 37.7235 69.1211 37.6784 69.3976 37.5721C70.408 37.3154 71.372 36.9022 72.2547 36.3476C72.3179 36.5823 72.4306 36.8007 72.5854 36.9882C72.7401 37.1756 72.9332 37.3276 73.1517 37.4341C75.3584 38.9674 77.3232 40.8222 78.9812 42.9368L81.0544 45.459C83.6034 48.3607 85.685 51.6417 87.2243 55.1839C87.4343 55.6486 87.8062 56.021 88.2706 56.2316C88.735 56.4422 89.2601 56.4766 89.748 56.3285C90.236 56.1803 90.6533 55.8597 90.9222 55.4264C91.1911 54.9932 91.2932 54.4769 91.2093 53.9739C90.7261 50.8409 89.8486 47.7815 88.5977 44.8687C88.0472 43.5736 87.3393 42.3511 86.4901 41.2289Z" fill="#0E0E0F"/>
<path fill-rule="evenodd" clip-rule="evenodd" d="M85.0318 69.5601L76.5702 77.8118L75.9622 78.5554C75.8549 76.3797 75.7372 74.1552 75.4727 71.962C75.316 70.8719 75.0854 69.7938 74.7827 68.7349C74.6263 67.6448 74.3957 66.5666 74.0927 65.5079C73.2557 63.0281 72.1671 60.8066 71.3685 58.2674C71.3562 58.0056 71.2884 57.7494 71.1696 57.5158C71.0508 57.2821 70.8837 57.0764 70.6794 56.9122C70.4751 56.748 70.2383 56.6291 69.9845 56.5634C69.7308 56.4976 69.466 56.4866 69.2076 56.5309C68.7428 56.602 68.3241 56.8522 68.0414 57.228C67.7586 57.6038 67.6342 58.0753 67.6947 58.5417C67.4141 61.2201 67.358 63.9173 67.527 66.605C67.6907 67.7277 67.9282 68.8384 68.2379 69.9299C68.4803 71.0244 68.7959 72.1014 69.1829 73.1535C69.5801 75.0115 70.5048 76.7056 71.2444 78.4904C70.5635 78.1759 69.8443 77.9206 69.125 77.6654C65.9721 76.55 62.8225 75.6895 59.6207 74.5846C59.4114 74.485 59.1845 74.4276 58.953 74.4156C58.7215 74.4037 58.49 74.4375 58.2715 74.5151C58.0531 74.5926 57.8521 74.7125 57.68 74.8677C57.5078 75.023 57.368 75.2106 57.2684 75.4199C57.1688 75.6292 57.1114 75.8561 57.0994 76.0876C57.0875 76.3191 57.1213 76.5507 57.1989 76.7691C57.2764 76.9875 57.3963 77.1885 57.5515 77.3607C57.7068 77.5328 57.8944 77.6726 58.1037 77.7722L69.9214 85.2157C71.0367 86.0088 72.199 86.7335 73.4021 87.3859C74.0198 87.703 74.7126 87.8448 75.4053 87.7958C76.0979 87.7469 76.7639 87.5091 77.3309 87.1083C78.0527 86.5444 78.6852 85.8748 79.207 85.1221C80.0736 83.9142 80.7203 82.3954 81.3738 81.3864L88.0759 72.0793C88.2554 71.8795 88.3927 71.6456 88.4799 71.3915C88.567 71.1374 88.602 70.8684 88.5829 70.6005C88.5638 70.3326 88.4909 70.0713 88.3686 69.8321C88.2463 69.593 88.0771 69.381 87.8711 69.2087C87.4454 68.8856 86.9104 68.7416 86.38 68.8072C85.8497 68.8729 85.3659 69.143 85.0318 69.5601Z" fill="#0E0E0F"/>
<path fill-rule="evenodd" clip-rule="evenodd" d="M46.7082 79.2374C44.9231 80.6929 43.1868 82.1378 41.5693 83.6597C40.3532 84.6812 39.2048 85.7807 38.1316 86.9513L37.8382 87.014C37.8953 84.8355 38.0793 82.6621 38.3893 80.5049C38.6938 79.0593 38.9982 77.6137 39.3621 76.2065C39.7422 74.8605 40.1928 73.5353 40.7118 72.2365C41.618 68.9346 43.2076 65.8598 45.3778 63.2114C45.7168 62.8843 45.9182 62.4404 45.9412 61.9699C45.9641 61.4995 45.8067 61.038 45.5011 60.6796C45.3496 60.4952 45.162 60.3437 44.9498 60.2345C44.7376 60.1253 44.5053 60.0606 44.2672 60.0445C44.0291 60.0283 43.7902 60.0611 43.5652 60.1407C43.3402 60.2203 43.1339 60.3451 42.9589 60.5074C39.4701 62.8168 36.6265 65.9762 34.6959 69.6881C33.8493 71.2837 33.2158 72.9834 32.8114 74.7439C32.404 76.4672 32.1808 78.2288 32.1456 79.9993C32.0663 82.2098 32.2139 84.4227 32.5862 86.6031L21.1345 80.871C20.9358 80.7418 20.7137 80.6532 20.4807 80.6101C20.2478 80.567 20.0086 80.5703 19.7769 80.6198C19.5453 80.6694 19.3257 80.7642 19.1307 80.8987C18.9357 81.0333 18.7693 81.2051 18.6408 81.4042C18.4064 81.8032 18.33 82.2756 18.4268 82.7282C18.5235 83.1808 18.7864 83.5806 19.1636 83.8489L31.0083 93.3318L34.1922 95.3098C33.972 95.7148 35.477 96.0577 35.91 96.1696C36.5111 96.3469 37.1499 96.352 37.7538 96.1844C38.8758 95.9121 39.9023 95.339 40.7229 94.5269C41.7223 93.3447 42.6145 92.076 43.3891 90.7356C43.9986 89.5214 44.6669 88.3376 45.3916 87.1885L49.4134 82.0847C49.7276 81.6879 49.8839 81.1888 49.8522 80.6836C49.8204 80.1783 49.6029 79.7027 49.2414 79.3483C48.8799 78.9939 48.4002 78.7858 47.8944 78.764C47.3887 78.7422 46.8928 78.9083 46.5022 79.2303L46.7082 79.2374Z" fill="#0E0E0F"/>
<path fill-rule="evenodd" clip-rule="evenodd" d="M126.433 58.2534C126.239 58.1249 126.021 58.0364 125.792 57.993C125.563 57.9497 125.328 57.9525 125.101 58.0012C124.873 58.0498 124.657 58.1435 124.466 58.2765C124.275 58.4096 124.113 58.5795 123.988 58.7762L115.882 68.6903C115.306 66.5558 114.537 64.4783 113.583 62.4838C112.809 60.8851 111.869 59.3724 110.778 57.9707C109.69 56.5412 108.435 55.2475 107.039 54.1172C103.744 51.5451 99.8638 49.8279 95.7443 49.1184C95.5173 49.0461 95.2783 49.0192 95.041 49.0392C94.8036 49.0592 94.5725 49.1258 94.3608 49.2352C94.1492 49.3445 93.9612 49.4945 93.8075 49.6765C93.6538 49.8585 93.5375 50.069 93.4652 50.296C93.3928 50.523 93.3659 50.762 93.3859 50.9993C93.406 51.2367 93.4726 51.4678 93.5819 51.6795C93.6913 51.8911 93.8412 52.0791 94.0233 52.2328C94.2053 52.3865 94.4158 52.5028 94.6428 52.5751C97.7394 54.0869 100.482 56.2362 102.689 58.882C103.635 59.958 104.581 61.034 105.489 62.1694C106.396 63.3047 107.265 64.4994 108.134 65.6941C109.003 66.8888 110.224 69.491 111.25 71.4191L111.006 71.4714C109.497 70.8736 108.048 70.3142 106.522 69.8735C104.997 69.4328 102.2 68.5481 99.9755 67.95C99.4731 67.7658 98.9187 67.7853 98.4305 68.0043C97.9424 68.2233 97.5592 68.6245 97.3628 69.1222C97.2648 69.3704 97.2174 69.6357 97.2235 69.9024C97.2296 70.1692 97.289 70.4321 97.3982 70.6756C97.5075 70.919 97.6643 71.1382 97.8596 71.3201C98.0548 71.502 98.2845 71.643 98.535 71.7348L104.292 74.7476C105.507 75.4081 106.694 76.1769 107.881 76.9457C109.127 77.8662 110.461 78.66 111.865 79.3152C112.928 79.7227 114.083 79.8295 115.203 79.6239C115.824 79.5326 116.405 79.2664 116.88 78.8564C117.32 78.7623 118.511 77.6384 118.096 77.3693L120.241 74.2517L127.123 60.7646C127.256 60.5579 127.344 60.3256 127.381 60.0827C127.418 59.8398 127.403 59.5919 127.338 59.355C127.273 59.1182 127.159 58.8977 127.003 58.7079C126.847 58.5181 126.653 58.3632 126.433 58.2534Z" fill="#0E0E0F"/>
</g>
<defs>
<clipPath id="clip0_0_94">
<rect width="120" height="120" fill="white" transform="translate(0 25.312) rotate(-12.0695)"/>
</clipPath>
</defs>
</svg>
