<svg width="40" height="40" viewBox="0 0 40 40" fill="none" xmlns="http://www.w3.org/2000/svg">
<path d="M34.0839 34.0842H28.1566V24.8019C28.1566 22.5882 28.1171 19.7398 25.0736 19.7398C21.9867 19.7398 21.5136 22.1506 21.5136 24.6422V34.0842H15.5882V14.9952H21.2791V17.603H21.3579C22.5189 15.62 24.6754 14.4353 26.9719 14.5201C32.9801 14.5201 34.0859 18.4723 34.0859 23.6113L34.0839 34.0842ZM8.89995 12.3853C6.99972 12.3853 5.46021 10.8458 5.46021 8.94556C5.46021 7.04532 6.99972 5.50582 8.89995 5.50582C10.8002 5.50582 12.3397 7.04532 12.3397 8.94556C12.3397 10.8458 10.8002 12.3853 8.89995 12.3853ZM11.8627 34.0842H5.92936V14.9952H11.8627V34.0842ZM37.0388 0.00224045H2.95088C1.34041 -0.0155003 0.019712 1.27563 0 2.8861V37.1139C0.019712 38.7264 1.34041 40.0175 2.95088 39.9998H37.0388C38.6532 40.0195 39.9798 38.7284 40.0015 37.1139V2.88413C39.9778 1.26972 38.6512 -0.021414 37.0388 0.000269158" fill="#0E0E0F"/>
</svg>
