<svg width="159" height="77" viewBox="0 0 159 77" fill="none" xmlns="http://www.w3.org/2000/svg">
<path d="M0.9 36L11.8 17.6L1.7 0.249998H14.65L19.65 10.3L24.55 0.249998H36.15L26.8 17.2L37.75 36H24.85L18.7 24.25L12.55 36H0.9ZM52.077 29.4C55.077 29.4 56.577 27.2 56.577 23.05V22.7C56.577 18.6 55.127 16.4 52.077 16.4C49.077 16.4 47.427 18.45 47.427 22.55V22.95C47.427 27.2 48.927 29.4 52.077 29.4ZM52.027 36.65C43.877 36.65 37.477 31.85 37.477 23.25V22.85C37.477 14.35 43.827 9.15 52.077 9.15C60.227 9.15 66.577 14.2 66.577 22.6V23C66.577 31.6 60.177 36.65 52.027 36.65ZM70.0258 36V9.85H79.8758V15.15C81.5258 11.1 84.3758 9.45 88.2758 9.5V18.7C82.8258 18.4 79.8758 20.2 79.8758 23.95V36H70.0258ZM100.5 36.65C95.4996 36.65 91.7496 33.5 91.7496 27V9.85H101.6V25.3C101.6 27.95 102.6 29.3 104.9 29.3C107.35 29.3 108.8 27.85 108.8 24.75V9.85H118.65V36H108.8V31.95C107.35 34.75 104.9 36.65 100.5 36.65ZM0.9 76L11.8 57.6L1.7 40.25H14.65L19.65 50.3L24.55 40.25H36.15L26.8 57.2L37.75 76H24.85L18.7 64.25L12.55 76H0.9ZM52.077 69.4C55.077 69.4 56.577 67.2 56.577 63.05V62.7C56.577 58.6 55.127 56.4 52.077 56.4C49.077 56.4 47.427 58.45 47.427 62.55V62.95C47.427 67.2 48.927 69.4 52.077 69.4ZM52.027 76.65C43.877 76.65 37.477 71.85 37.477 63.25V62.85C37.477 54.35 43.827 49.15 52.077 49.15C60.227 49.15 66.577 54.2 66.577 62.6V63C66.577 71.6 60.177 76.65 52.027 76.65ZM87.8258 76.65C83.9758 76.65 81.1758 74.8 79.8758 72V76H70.0258V38.5H79.8758V53.65C81.3258 51.2 83.9258 49.15 87.8758 49.15C93.8258 49.15 98.8258 53.6 98.8258 62.75V63.15C98.8258 72.3 93.7758 76.65 87.8258 76.65ZM84.2258 69.15C87.1758 69.15 88.8258 67.05 88.8258 63.05V62.65C88.8258 58.45 87.1258 56.45 84.1758 56.45C81.2758 56.45 79.6258 58.65 79.6258 62.65V63.05C79.6258 67.1 81.2258 69.15 84.2258 69.15ZM102.35 76V38.5H112.2V54.05C113.65 51.3 116.45 49.15 120.85 49.15C125.8 49.15 129.25 52.3 129.25 58.8V76H119.4V61C119.4 58.35 118.45 57 116.1 57C113.65 57 112.2 58.45 112.2 61.55V76H102.35ZM141.345 76.65C136.645 76.65 132.445 74.35 132.445 68.75C132.445 62.6 137.445 60.2 146.495 60.2H148.745V59.75C148.745 57.55 148.345 55.95 145.695 55.95C143.445 55.95 142.745 57.4 142.595 58.75H133.395C133.795 52.35 138.795 49.1 146.295 49.1C153.895 49.1 158.495 52.2 158.495 59.1V76H148.995V73C147.895 74.8 145.595 76.65 141.345 76.65ZM144.895 70.05C147.145 70.05 148.745 68.8 148.745 66.85V65.5H146.645C143.345 65.5 142.145 66.15 142.145 68C142.145 69.25 143.095 70.05 144.895 70.05Z" fill="#FFD700"/>
</svg>
