<svg width="278" height="82" viewBox="0 0 278 82" fill="none" xmlns="http://www.w3.org/2000/svg">
<path d="M271.269 1.13867H5.67348C3.16678 1.13867 1.1347 3.17826 1.1347 5.69423V76.3053C1.1347 78.8213 3.16678 80.8609 5.67348 80.8609H271.269C273.776 80.8609 275.808 78.8213 275.808 76.3053V5.69423C275.808 3.17826 273.776 1.13867 271.269 1.13867Z" stroke="#BBB597"/>
<path d="M99.4179 21.4741C99.4179 23.0433 99.0271 24.4163 98.05 25.397C96.8774 26.5738 95.5095 27.1623 93.7508 27.1623C91.992 27.1623 90.624 26.5738 89.4515 25.397C88.279 24.2201 87.6927 22.8472 87.6927 21.0819C87.6927 19.3166 88.279 17.9437 89.4515 16.7667C90.624 15.5899 91.992 15.0015 93.7508 15.0015C94.5325 15.0015 95.3141 15.1976 96.0957 15.5899C96.8774 15.9822 97.4637 16.3745 97.8545 16.9629L96.8774 17.9436C96.0957 16.9629 95.1186 16.5706 93.7508 16.5706C92.5782 16.5706 91.4057 16.9629 90.624 17.9436C89.6469 18.7281 89.2561 19.9051 89.2561 21.278C89.2561 22.651 89.6469 23.8279 90.624 24.6124C91.6011 25.397 92.5782 25.9854 93.7508 25.9854C95.1186 25.9854 96.0957 25.5931 97.0729 24.6124C97.6591 24.024 98.05 23.2394 98.05 22.2587H93.7508V20.8858H99.4179C99.4179 20.8858 99.4179 21.0819 99.4179 21.4741Z" fill="#0E0E0F" stroke="#0E0E0F" stroke-width="0.2" stroke-miterlimit="10"/>
<path d="M108.408 16.5706H103.132V20.2973H108.017V21.6703H103.132V25.397H108.408V26.7699H101.568V15.0015H108.408V16.5706Z" fill="#0E0E0F" stroke="#0E0E0F" stroke-width="0.2" stroke-miterlimit="10"/>
<path d="M114.857 26.7699H113.293V16.3745H109.971V15.0015H118.178V16.3745H114.857V26.7699Z" fill="#0E0E0F" stroke="#0E0E0F" stroke-width="0.2" stroke-miterlimit="10"/>
<path d="M123.846 26.7699V15.0015H125.409V26.7699H123.846Z" fill="#0E0E0F" stroke="#0E0E0F" stroke-width="0.2" stroke-miterlimit="10"/>
<path d="M132.053 26.7699H130.491V16.3745H127.169V15.0015H135.181V16.3745H131.858V26.7699H132.053Z" fill="#0E0E0F" stroke="#0E0E0F" stroke-width="0.2" stroke-miterlimit="10"/>
<path d="M150.618 25.397C149.446 26.5738 148.078 27.1623 146.319 27.1623C144.56 27.1623 143.193 26.5738 142.019 25.397C140.847 24.2201 140.261 22.8472 140.261 21.0819C140.261 19.3166 140.847 17.9437 142.019 16.7667C143.193 15.5899 144.56 15.0015 146.319 15.0015C148.078 15.0015 149.446 15.5899 150.618 16.7667C151.79 17.9437 152.377 19.3166 152.377 21.0819C152.377 22.651 151.79 24.2201 150.618 25.397ZM143.193 24.4163C143.974 25.2009 145.147 25.7892 146.319 25.7892C147.492 25.7892 148.664 25.397 149.446 24.4163C150.228 23.6317 150.813 22.4549 150.813 21.0819C150.813 19.7088 150.423 18.532 149.446 17.7474C148.664 16.9629 147.492 16.3745 146.319 16.3745C145.147 16.3745 143.974 16.7667 143.193 17.7474C142.411 18.532 141.824 19.7088 141.824 21.0819C141.824 22.2587 142.216 23.4356 143.193 24.4163Z" fill="#0E0E0F" stroke="#0E0E0F" stroke-width="0.2" stroke-miterlimit="10"/>
<path d="M154.527 26.7699V15.0015H156.286L161.953 24.2201V21.8665V15.0015H163.516V26.7699H161.953L155.894 17.1591V19.5127V26.7699H154.527Z" fill="#0E0E0F" stroke="#0E0E0F" stroke-width="0.2" stroke-miterlimit="10"/>
<path d="M139.869 44.0306C135.179 44.0306 131.467 47.5612 131.467 52.4648C131.467 57.1722 135.179 60.8988 139.869 60.8988C144.559 60.8988 148.273 57.3683 148.273 52.4648C148.273 47.5612 144.559 44.0306 139.869 44.0306ZM139.869 57.3683C137.329 57.3683 135.179 55.2108 135.179 52.2687C135.179 49.3265 137.329 47.169 139.869 47.169C142.41 47.169 144.559 49.1303 144.559 52.2687C144.559 55.4069 142.41 57.3683 139.869 57.3683ZM121.695 44.0306C117.005 44.0306 113.292 47.5612 113.292 52.4648C113.292 57.1722 117.005 60.8988 121.695 60.8988C126.386 60.8988 130.098 57.3683 130.098 52.4648C130.098 47.5612 126.386 44.0306 121.695 44.0306ZM121.695 57.3683C119.155 57.3683 117.005 55.2108 117.005 52.2687C117.005 49.3265 119.155 47.169 121.695 47.169C124.235 47.169 126.386 49.1303 126.386 52.2687C126.386 55.4069 124.235 57.3683 121.695 57.3683ZM100.004 46.5805V50.111H108.407C108.211 52.0726 107.43 53.6416 106.453 54.6223C105.28 55.7991 103.326 57.1722 100.004 57.1722C94.7274 57.1722 90.819 53.0531 90.819 47.7574C90.819 42.4616 94.9228 38.3426 100.004 38.3426C102.74 38.3426 104.889 39.5194 106.453 40.8924L108.993 38.3426C106.843 36.3812 104.107 34.812 100.199 34.812C93.164 34.812 87.106 40.6963 87.106 47.7574C87.106 54.8184 93.164 60.7027 100.199 60.7027C104.107 60.7027 106.843 59.5259 109.188 56.976C111.533 54.6223 112.315 51.2879 112.315 48.7381C112.315 47.9535 112.315 47.169 112.12 46.5805H100.004ZM188.725 49.3265C187.943 47.3651 185.988 44.0306 181.689 44.0306C177.39 44.0306 173.873 47.3651 173.873 52.4648C173.873 57.1722 177.39 60.8988 182.08 60.8988C185.793 60.8988 188.138 58.5452 188.92 57.1722L186.184 55.2108C185.207 56.5837 184.034 57.5644 182.08 57.5644C180.126 57.5644 178.953 56.7799 177.976 55.0146L189.115 50.3072L188.725 49.3265ZM177.39 52.0726C177.39 48.9342 179.931 47.169 181.689 47.169C183.057 47.169 184.425 47.9535 184.816 48.9342L177.39 52.0726ZM168.205 60.1142H171.917V35.5966H168.205V60.1142ZM162.343 45.7959C161.365 44.8152 159.802 43.8345 157.847 43.8345C153.744 43.8345 149.835 47.5612 149.835 52.2687C149.835 56.976 153.549 60.5066 157.847 60.5066C159.802 60.5066 161.365 59.5259 162.147 58.5452H162.343V59.722C162.343 62.8602 160.584 64.6255 157.847 64.6255C155.698 64.6255 154.135 63.0564 153.744 61.6834L150.617 63.0565C151.594 65.214 153.939 67.9599 158.044 67.9599C162.343 67.9599 165.86 65.4101 165.86 59.3298V44.423H162.343V45.7959ZM158.044 57.3683C155.503 57.3683 153.353 55.2108 153.353 52.2687C153.353 49.3265 155.503 47.169 158.044 47.169C160.584 47.169 162.538 49.3265 162.538 52.2687C162.538 55.2108 160.584 57.3683 158.044 57.3683ZM205.726 35.5966H196.932V60.1142H200.645V50.8956H205.726C209.829 50.8956 213.738 47.9535 213.738 43.2462C213.738 38.5387 209.829 35.5966 205.726 35.5966ZM205.921 47.5612H200.645V39.1271H205.921C208.657 39.1271 210.22 41.4809 210.22 43.2462C210.025 45.2076 208.461 47.5612 205.921 47.5612ZM228.395 44.0306C225.658 44.0306 222.922 45.2076 221.945 47.7574L225.267 49.1303C226.049 47.7574 227.221 47.3651 228.59 47.3651C230.544 47.3651 232.302 48.542 232.498 50.5034V50.6995C231.912 50.3072 230.349 49.7188 228.785 49.7188C225.267 49.7188 221.75 51.6802 221.75 55.2108C221.75 58.5452 224.681 60.7027 227.808 60.7027C230.349 60.7027 231.521 59.5259 232.498 58.3491H232.693V60.3105H236.21V50.8956C235.82 46.3844 232.498 44.0306 228.395 44.0306ZM228.003 57.3683C226.831 57.3683 225.072 56.7799 225.072 55.2108C225.072 53.2494 227.221 52.6609 228.98 52.6609C230.544 52.6609 231.326 53.0532 232.302 53.4455C231.912 55.7992 229.957 57.3683 228.003 57.3683ZM248.522 44.423L244.419 55.0146H244.224L239.924 44.423H236.015L242.465 59.3298L238.751 67.5677H242.465L252.431 44.423H248.522ZM215.692 60.1142H219.404V35.5966H215.692V60.1142Z" fill="#0E0E0F"/>
<path d="M26.1357 65.0177C25.354 64.6254 24.9633 63.6447 24.9633 62.664C24.9633 62.4678 24.9633 62.0756 24.9633 61.8794C24.9633 47.365 24.9633 32.8504 24.9633 18.5321C24.9633 17.7475 25.1587 17.1591 25.354 16.3746C25.5496 15.9822 25.9403 15.59 26.3312 15.1978C34.7342 23.6318 42.9418 32.0658 51.1494 40.5C42.7464 48.3456 34.5388 56.5836 26.1357 65.0177Z" fill="#0E0E0F"/>
<path d="M59.3566 31.87C57.0115 34.2237 54.4711 36.5773 52.1261 39.1272C44.3093 31.0854 36.2971 23.0436 28.4803 15.0018C28.4803 15.0018 28.4803 14.8057 28.6757 14.8057C38.8376 20.4937 48.9994 26.1819 59.3566 31.87Z" fill="#0E0E0F"/>
<path d="M28.4803 65.0179C36.2971 57.1722 44.3093 49.3266 52.1261 41.481C54.2757 43.6385 56.6208 45.7961 59.1612 48.1497C48.9994 53.8379 38.8376 59.526 28.6757 65.0179H28.4803Z" fill="#0E0E0F"/>
<path d="M60.5299 47.3649C57.9894 45.0112 55.6445 42.6575 53.104 40.3039C55.6445 37.754 58.1849 35.2042 60.7253 32.6543C61.507 33.0465 62.2887 33.4389 63.0704 34.0272C65.0245 35.2042 67.1742 36.1849 69.1284 37.3617C69.7147 37.5578 70.1055 37.9501 70.4962 38.5385C71.2779 39.5192 71.2779 40.5 70.4962 41.4807C70.1055 41.8729 69.7147 42.2653 69.1284 42.4614C66.3925 44.2267 63.4613 45.7958 60.5299 47.3649Z" fill="#0E0E0F"/>
</svg>
