<svg width="57" height="40" viewBox="0 0 57 40" fill="none" xmlns="http://www.w3.org/2000/svg">
<path d="M55.5902 6.24556C54.9373 3.78756 53.014 1.85001 50.5701 1.19234C46.1438 4.23028e-07 28.3889 0 28.3889 0C28.3889 0 10.634 4.23028e-07 6.20535 1.19234C3.7639 1.85001 1.84055 3.78519 1.1876 6.24556C0 10.7026 0 20 0 20C0 20 0 29.2974 1.1876 33.7544C1.84055 36.2124 3.7639 38.15 6.20771 38.8077C10.634 40 28.3889 40 28.3889 40C28.3889 40 46.1438 40 50.5725 38.8077C53.014 38.15 54.9373 36.2148 55.5926 33.7544C56.7779 29.2974 56.7779 20 56.7779 20C56.7779 20 56.7779 10.7026 55.5902 6.24556ZM22.5834 28.4433V11.5567L37.4213 20L22.5834 28.4433Z" fill="#0E0E0F"/>
</svg>
